<svg viewBox="0 0 440 420" xmlns="http://www.w3.org/2000/svg" role="img" aria-label="Targeted AUROC vs. label noise (sensitivity, not wiring)" font-family="system-ui,sans-serif"><title>Targeted AUROC vs. label noise (sensitivity, not wiring)</title><desc>Targeted AUROC vs. label noise (sensitivity, not wiring)</desc><text x="220.0" y="20" text-anchor="middle" font-size="14" font-weight="600">Targeted AUROC vs. label noise (sensitivity, not wiring)</text><rect x="52" y="52" width="316" height="316" fill="none" stroke="#ddd"/><line x1="52" y1="368.0" x2="368" y2="368.0" stroke="#f1f5f9"/><text x="46" y="371.0" text-anchor="end" font-size="10" fill="#888">0.50</text><line x1="52" y1="210.0" x2="368" y2="210.0" stroke="#f1f5f9"/><text x="46" y="213.0" text-anchor="end" font-size="10" fill="#888">0.75</text><line x1="52" y1="52.0" x2="368" y2="52.0" stroke="#f1f5f9"/><text x="46" y="55.0" text-anchor="end" font-size="10" fill="#888">1.00</text><line x1="52" y1="368.0" x2="368" y2="368.0" stroke="#cbd5e1" stroke-dasharray="4 3"/><text x="52" y="384.0" text-anchor="middle" font-size="10" fill="#888">0</text><text x="368" y="384.0" text-anchor="middle" font-size="10" fill="#888">0.4</text><text x="210.0" y="408" text-anchor="middle" font-size="11" fill="#555">symmetric label noise</text><text x="14" y="210.0" text-anchor="middle" font-size="11" fill="#555" transform="rotate(-90 14 210.0)">targeted AUROC</text><polyline points="52.0,52.0 131.0,52.0 210.0,62.3 289.0,122.3 368.0,215.9" fill="none" stroke="#4f46e5" stroke-width="2"/><circle cx="52.0" cy="52.0" r="2.5" fill="#4f46e5"/><circle cx="131.0" cy="52.0" r="2.5" fill="#4f46e5"/><circle cx="210.0" cy="62.3" r="2.5" fill="#4f46e5"/><circle cx="289.0" cy="122.3" r="2.5" fill="#4f46e5"/><circle cx="368.0" cy="215.9" r="2.5" fill="#4f46e5"/><text x="362.0" y="60.0" text-anchor="end" font-size="11" fill="#4f46e5">SHI</text><polyline points="52.0,52.0 131.0,52.0 210.0,52.0 289.0,61.5 368.0,104.5" fill="none" stroke="#0891b2" stroke-width="2"/><circle cx="52.0" cy="52.0" r="2.5" fill="#0891b2"/><circle cx="131.0" cy="52.0" r="2.5" fill="#0891b2"/><circle cx="210.0" cy="52.0" r="2.5" fill="#0891b2"/><circle cx="289.0" cy="61.5" r="2.5" fill="#0891b2"/><circle cx="368.0" cy="104.5" r="2.5" fill="#0891b2"/><text x="362.0" y="76.0" text-anchor="end" font-size="11" fill="#0891b2">CSC</text><polyline points="52.0,52.0 131.0,52.0 210.0,57.5 289.0,103.0 368.0,237.6" fill="none" stroke="#ca8a04" stroke-width="2"/><circle cx="52.0" cy="52.0" r="2.5" fill="#ca8a04"/><circle cx="131.0" cy="52.0" r="2.5" fill="#ca8a04"/><circle cx="210.0" cy="57.5" r="2.5" fill="#ca8a04"/><circle cx="289.0" cy="103.0" r="2.5" fill="#ca8a04"/><circle cx="368.0" cy="237.6" r="2.5" fill="#ca8a04"/><text x="362.0" y="92.0" text-anchor="end" font-size="11" fill="#ca8a04">SIM</text><polyline points="52.0,52.0 131.0,52.0 210.0,52.0 289.0,71.6 368.0,208.4" fill="none" stroke="#db2777" stroke-width="2"/><circle cx="52.0" cy="52.0" r="2.5" fill="#db2777"/><circle cx="131.0" cy="52.0" r="2.5" fill="#db2777"/><circle cx="210.0" cy="52.0" r="2.5" fill="#db2777"/><circle cx="289.0" cy="71.6" r="2.5" fill="#db2777"/><circle cx="368.0" cy="208.4" r="2.5" fill="#db2777"/><text x="362.0" y="108.0" text-anchor="end" font-size="11" fill="#db2777">EAR</text></svg>