<svg viewBox="0 0 392 358" xmlns="http://www.w3.org/2000/svg" role="img" aria-label="Cross-probe correlation (Spearman)" font-family="system-ui,sans-serif"><title>Cross-probe correlation (Spearman)</title><desc>Cross-probe correlation (Spearman)</desc><text x="196.0" y="22" text-anchor="middle" font-size="14" font-weight="600">Cross-probe correlation (Spearman)</text><text x="152.0" y="48" text-anchor="middle" font-size="11" font-weight="600">SHI</text><text x="216.0" y="48" text-anchor="middle" font-size="11" font-weight="600">CSC</text><text x="280.0" y="48" text-anchor="middle" font-size="11" font-weight="600">SIM</text><text x="344.0" y="48" text-anchor="middle" font-size="11" font-weight="600">EAR</text><text x="112" y="92.0" text-anchor="end" font-size="11">SHI</text><rect x="120" y="56" width="62" height="62" fill="rgb(37,99,235)" rx="3"/><text x="151.0" y="92.0" text-anchor="middle" font-size="12" fill="#fff">1.00</text><rect x="184" y="56" width="62" height="62" fill="rgb(200,216,250)" rx="3"/><text x="215.0" y="92.0" text-anchor="middle" font-size="12" fill="#111">0.25</text><rect x="248" y="56" width="62" height="62" fill="rgb(200,216,250)" rx="3"/><text x="279.0" y="92.0" text-anchor="middle" font-size="12" fill="#111">0.25</text><rect x="312" y="56" width="62" height="62" fill="rgb(202,217,250)" rx="3"/><text x="343.0" y="92.0" text-anchor="middle" font-size="12" fill="#111">0.24</text><text x="112" y="156.0" text-anchor="end" font-size="11">CSC</text><rect x="120" y="120" width="62" height="62" fill="rgb(200,216,250)" rx="3"/><text x="151.0" y="156.0" text-anchor="middle" font-size="12" fill="#111">0.25</text><rect x="184" y="120" width="62" height="62" fill="rgb(37,99,235)" rx="3"/><text x="215.0" y="156.0" text-anchor="middle" font-size="12" fill="#fff">1.00</text><rect x="248" y="120" width="62" height="62" fill="rgb(200,216,250)" rx="3"/><text x="279.0" y="156.0" text-anchor="middle" font-size="12" fill="#111">0.25</text><rect x="312" y="120" width="62" height="62" fill="rgb(202,217,250)" rx="3"/><text x="343.0" y="156.0" text-anchor="middle" font-size="12" fill="#111">0.24</text><text x="112" y="220.0" text-anchor="end" font-size="11">SIM</text><rect x="120" y="184" width="62" height="62" fill="rgb(200,216,250)" rx="3"/><text x="151.0" y="220.0" text-anchor="middle" font-size="12" fill="#111">0.25</text><rect x="184" y="184" width="62" height="62" fill="rgb(200,216,250)" rx="3"/><text x="215.0" y="220.0" text-anchor="middle" font-size="12" fill="#111">0.25</text><rect x="248" y="184" width="62" height="62" fill="rgb(37,99,235)" rx="3"/><text x="279.0" y="220.0" text-anchor="middle" font-size="12" fill="#fff">1.00</text><rect x="312" y="184" width="62" height="62" fill="rgb(202,217,250)" rx="3"/><text x="343.0" y="220.0" text-anchor="middle" font-size="12" fill="#111">0.24</text><text x="112" y="284.0" text-anchor="end" font-size="11">EAR</text><rect x="120" y="248" width="62" height="62" fill="rgb(202,217,250)" rx="3"/><text x="151.0" y="284.0" text-anchor="middle" font-size="12" fill="#111">0.24</text><rect x="184" y="248" width="62" height="62" fill="rgb(202,217,250)" rx="3"/><text x="215.0" y="284.0" text-anchor="middle" font-size="12" fill="#111">0.24</text><rect x="248" y="248" width="62" height="62" fill="rgb(202,217,250)" rx="3"/><text x="279.0" y="284.0" text-anchor="middle" font-size="12" fill="#111">0.24</text><rect x="312" y="248" width="62" height="62" fill="rgb(37,99,235)" rx="3"/><text x="343.0" y="284.0" text-anchor="middle" font-size="12" fill="#fff">1.00</text><rect x="120.0" y="326" width="21.0" height="10" fill="rgb(255,255,255)"/><rect x="142.9" y="326" width="21.0" height="10" fill="rgb(224,233,252)"/><rect x="165.7" y="326" width="21.0" height="10" fill="rgb(193,210,249)"/><rect x="188.6" y="326" width="21.0" height="10" fill="rgb(162,188,246)"/><rect x="211.4" y="326" width="21.0" height="10" fill="rgb(130,166,244)"/><rect x="234.3" y="326" width="21.0" height="10" fill="rgb(99,144,241)"/><rect x="257.1" y="326" width="21.0" height="10" fill="rgb(68,121,238)"/><rect x="280.0" y="326" width="21.0" height="10" fill="rgb(37,99,235)"/><text x="120" y="348" font-size="10" fill="#666">low</text><text x="280" y="348" text-anchor="end" font-size="10" fill="#666">high</text></svg>